<?xml version="1.0" encoding="UTF-8" standalone="no"?>
<!DOCTYPE svg PUBLIC "-//W3C//DTD SVG 1.1//EN"
 "http://www.w3.org/Graphics/SVG/1.1/DTD/svg11.dtd">
<!-- Generated by graphviz version 13.1.2 (20250808.2320)
 -->
<!-- Title: G Pages: 1 -->
<svg width="505pt" height="739pt"
 viewBox="0.00 0.00 505.00 739.00" xmlns="http://www.w3.org/2000/svg" xmlns:xlink="http://www.w3.org/1999/xlink">
<g id="graph0" class="graph" transform="scale(1 1) rotate(0) translate(4 734.75)">
<title>G</title><style>.edge>path:hover{stroke-width:8}</style>
<polygon fill="white" stroke="none" points="-4,4 -4,-734.75 501.5,-734.75 501.5,4 -4,4"/>
<!-- autorepro___main__ -->
<g id="node1" class="node">
<title>autorepro___main__</title><style>.edge>path:hover{stroke-width:8}</style>
<ellipse fill="#b34c4c" stroke="black" cx="345.97" cy="-21.57" rx="42.07" ry="21.57"/>
<text xml:space="preserve" text-anchor="middle" x="345.97" y="-23.32" font-family="Helvetica,sans-Serif" font-size="10.00" fill="#ffffff">autorepro.</text>
<text xml:space="preserve" text-anchor="middle" x="345.97" y="-12.07" font-family="Helvetica,sans-Serif" font-size="10.00" fill="#ffffff">__main__</text>
</g>
<!-- autorepro_cli -->
<g id="node2" class="node">
<title>autorepro_cli</title><style>.edge>path:hover{stroke-width:8}</style>
<ellipse fill="#8a2e2e" stroke="black" cx="345.97" cy="-97.13" rx="40.97" ry="18"/>
<text xml:space="preserve" text-anchor="middle" x="345.97" y="-93.26" font-family="Helvetica,sans-Serif" font-size="10.00" fill="#ffffff">autorepro.cli</text>
</g>
<!-- autorepro_cli&#45;&gt;autorepro___main__ -->
<g id="edge1" class="edge">
<title>autorepro_cli&#45;&gt;autorepro___main__</title><style>.edge>path:hover{stroke-width:8}</style>
<path fill="none" stroke="black" d="M345.97,-78.7C345.97,-71.54 345.97,-63.01 345.97,-54.79"/>
<polygon fill="#8a2e2e" stroke="black" points="349.47,-55.06 345.97,-45.06 342.47,-55.06 349.47,-55.06"/>
</g>
<!-- autorepro_detect -->
<g id="node3" class="node">
<title>autorepro_detect</title><style>.edge>path:hover{stroke-width:8}</style>
<ellipse fill="#f31616" stroke="black" cx="151.97" cy="-630.05" rx="42.07" ry="21.57"/>
<text xml:space="preserve" text-anchor="middle" x="151.97" y="-631.8" font-family="Helvetica,sans-Serif" font-size="10.00" fill="#ffffff">autorepro.</text>
<text xml:space="preserve" text-anchor="middle" x="151.97" y="-620.55" font-family="Helvetica,sans-Serif" font-size="10.00" fill="#ffffff">detect</text>
</g>
<!-- autorepro_detect&#45;&gt;autorepro_cli -->
<g id="edge2" class="edge">
<title>autorepro_detect&#45;&gt;autorepro_cli</title><style>.edge>path:hover{stroke-width:8}</style>
<path fill="none" stroke="black" d="M11.97,-322.83C16.19,-288.81 19.06,-279.24 11.97,-245.7"/>
<path fill="none" stroke="black" d="M11.97,-243.7C5.21,-211.71 0.18,-200.63 11.97,-170.13"/>
<path fill="none" stroke="black" d="M109.74,-628.57C71.29,-625.45 18.65,-613.52 5.97,-572.49"/>
<path fill="none" stroke="black" d="M5.97,-571.49C-15.54,-501.83 28.96,-483.26 43.97,-411.92"/>
<path fill="none" stroke="black" d="M43.97,-409.92C51.73,-370.27 7,-364.93 11.97,-324.83"/>
<path fill="none" stroke="black" d="M11.97,-168.13C32.17,-115.91 204.62,-102.64 293.48,-99.28"/>
<polygon fill="#f31616" stroke="black" points="293.54,-102.78 303.41,-98.93 293.3,-95.78 293.54,-102.78"/>
</g>
<!-- autorepro_issue -->
<g id="node5" class="node">
<title>autorepro_issue</title><style>.edge>path:hover{stroke-width:8}</style>
<ellipse fill="#9b2626" stroke="black" cx="119.97" cy="-244.7" rx="42.07" ry="21.57"/>
<text xml:space="preserve" text-anchor="middle" x="119.97" y="-246.45" font-family="Helvetica,sans-Serif" font-size="10.00" fill="#ffffff">autorepro.</text>
<text xml:space="preserve" text-anchor="middle" x="119.97" y="-235.2" font-family="Helvetica,sans-Serif" font-size="10.00" fill="#ffffff">issue</text>
</g>
<!-- autorepro_detect&#45;&gt;autorepro_issue -->
<g id="edge3" class="edge">
<title>autorepro_detect&#45;&gt;autorepro_issue</title><style>.edge>path:hover{stroke-width:8}</style>
<path fill="none" stroke="black" d="M11.97,-322.83C15.82,-291.81 45.92,-272.01 73.37,-260.24"/>
<polygon fill="#f31616" stroke="black" points="74.3,-263.64 82.29,-256.68 71.71,-257.14 74.3,-263.64"/>
</g>
<!-- autorepro_pr -->
<g id="node7" class="node">
<title>autorepro_pr</title><style>.edge>path:hover{stroke-width:8}</style>
<ellipse fill="#913030" stroke="black" cx="288.97" cy="-169.13" rx="40.09" ry="18"/>
<text xml:space="preserve" text-anchor="middle" x="288.97" y="-165.26" font-family="Helvetica,sans-Serif" font-size="10.00" fill="#ffffff">autorepro.pr</text>
</g>
<!-- autorepro_detect&#45;&gt;autorepro_pr -->
<g id="edge4" class="edge">
<title>autorepro_detect&#45;&gt;autorepro_pr</title><style>.edge>path:hover{stroke-width:8}</style>
<path fill="none" stroke="black" d="M181.95,-614.63C238.01,-585.36 353.82,-513.07 361.97,-411.92"/>
</g>
<!-- autorepro_report -->
<g id="node8" class="node">
<title>autorepro_report</title><style>.edge>path:hover{stroke-width:8}</style>
<ellipse fill="#ac2b2b" stroke="black" cx="81.97" cy="-323.83" rx="42.07" ry="21.57"/>
<text xml:space="preserve" text-anchor="middle" x="81.97" y="-325.58" font-family="Helvetica,sans-Serif" font-size="10.00" fill="#ffffff">autorepro.</text>
<text xml:space="preserve" text-anchor="middle" x="81.97" y="-314.33" font-family="Helvetica,sans-Serif" font-size="10.00" fill="#ffffff">report</text>
</g>
<!-- autorepro_detect&#45;&gt;autorepro_report -->
<g id="edge5" class="edge">
<title>autorepro_detect&#45;&gt;autorepro_report</title><style>.edge>path:hover{stroke-width:8}</style>
<path fill="none" stroke="black" d="M43.97,-409.92C48.02,-390.7 56.77,-370.57 64.86,-354.72"/>
<polygon fill="#f31616" stroke="black" points="67.73,-356.79 69.31,-346.31 61.54,-353.51 67.73,-356.79"/>
</g>
<!-- autorepro_utils_plan_processing -->
<g id="node13" class="node">
<title>autorepro_utils_plan_processing</title><style>.edge>path:hover{stroke-width:8}</style>
<ellipse fill="#d02424" stroke="black" cx="94.97" cy="-505.97" rx="61.16" ry="29.52"/>
<text xml:space="preserve" text-anchor="middle" x="94.97" y="-513.34" font-family="Helvetica,sans-Serif" font-size="10.00" fill="#ffffff">autorepro.</text>
<text xml:space="preserve" text-anchor="middle" x="94.97" y="-502.09" font-family="Helvetica,sans-Serif" font-size="10.00" fill="#ffffff">utils.</text>
<text xml:space="preserve" text-anchor="middle" x="94.97" y="-490.84" font-family="Helvetica,sans-Serif" font-size="10.00" fill="#ffffff">plan_processing</text>
</g>
<!-- autorepro_detect&#45;&gt;autorepro_utils_plan_processing -->
<g id="edge6" class="edge">
<title>autorepro_detect&#45;&gt;autorepro_utils_plan_processing</title><style>.edge>path:hover{stroke-width:8}</style>
<path fill="none" stroke="black" d="M5.97,-571.49C-0.05,-552 14.47,-537.54 33.43,-527.3"/>
<polygon fill="#f31616" stroke="black" points="34.83,-530.51 42.3,-522.99 31.77,-524.21 34.83,-530.51"/>
</g>
<!-- autorepro_env -->
<g id="node4" class="node">
<title>autorepro_env</title><style>.edge>path:hover{stroke-width:8}</style>
<ellipse fill="#c24747" stroke="black" cx="452.97" cy="-169.13" rx="44.53" ry="18"/>
<text xml:space="preserve" text-anchor="middle" x="452.97" y="-165.26" font-family="Helvetica,sans-Serif" font-size="10.00" fill="#ffffff">autorepro.env</text>
</g>
<!-- autorepro_env&#45;&gt;autorepro_cli -->
<g id="edge7" class="edge">
<title>autorepro_env&#45;&gt;autorepro_cli</title><style>.edge>path:hover{stroke-width:8}</style>
<path fill="none" stroke="black" d="M430.28,-153.29C415,-143.29 394.63,-129.97 377.74,-118.92"/>
<polygon fill="#c24747" stroke="black" points="379.82,-116.09 369.53,-113.55 375.98,-121.95 379.82,-116.09"/>
</g>
<!-- autorepro_issue&#45;&gt;autorepro_cli -->
<g id="edge8" class="edge">
<title>autorepro_issue&#45;&gt;autorepro_cli</title><style>.edge>path:hover{stroke-width:8}</style>
<path fill="none" stroke="black" d="M81.95,-235.19C45.78,-224.89 -1.32,-204.52 11.97,-170.13"/>
</g>
<!-- autorepro_issue&#45;&gt;autorepro_pr -->
<g id="edge9" class="edge">
<title>autorepro_issue&#45;&gt;autorepro_pr</title><style>.edge>path:hover{stroke-width:8}</style>
<path fill="none" stroke="black" d="M151.36,-230.04C179.33,-217.86 220.36,-200 250.34,-186.95"/>
<polygon fill="#9b2626" stroke="black" points="251.68,-190.19 259.45,-182.99 248.88,-183.77 251.68,-190.19"/>
</g>
<!-- autorepro_planner -->
<g id="node6" class="node">
<title>autorepro_planner</title><style>.edge>path:hover{stroke-width:8}</style>
<ellipse fill="#e90c0c" stroke="black" cx="291.97" cy="-630.05" rx="42.07" ry="21.57"/>
<text xml:space="preserve" text-anchor="middle" x="291.97" y="-631.8" font-family="Helvetica,sans-Serif" font-size="10.00" fill="#ffffff">autorepro.</text>
<text xml:space="preserve" text-anchor="middle" x="291.97" y="-620.55" font-family="Helvetica,sans-Serif" font-size="10.00" fill="#ffffff">planner</text>
</g>
<!-- autorepro_planner&#45;&gt;autorepro_cli -->
<g id="edge10" class="edge">
<title>autorepro_planner&#45;&gt;autorepro_cli</title><style>.edge>path:hover{stroke-width:8}</style>
<path fill="none" stroke="black" d="M379.97,-243.7C364.88,-214.7 383.15,-202.67 379.97,-170.13"/>
</g>
<!-- autorepro_planner&#45;&gt;autorepro_issue -->
<g id="edge11" class="edge">
<title>autorepro_planner&#45;&gt;autorepro_issue</title><style>.edge>path:hover{stroke-width:8}</style>
<path fill="none" stroke="black" d="M399.97,-571.49C403.82,-518.5 214.6,-464.53 221.97,-411.92"/>
<path fill="none" stroke="black" d="M331.88,-622.48C358.86,-615.47 391.12,-601.21 399.97,-572.49"/>
</g>
<!-- autorepro_planner&#45;&gt;autorepro_pr -->
<g id="edge12" class="edge">
<title>autorepro_planner&#45;&gt;autorepro_pr</title><style>.edge>path:hover{stroke-width:8}</style>
<path fill="none" stroke="black" d="M399.97,-571.49C442.7,-432.86 448.86,-373.37 379.97,-245.7"/>
<path fill="none" stroke="black" d="M379.97,-243.7C367.78,-220.27 344.5,-201.66 324.53,-189.02"/>
<polygon fill="#e90c0c" stroke="black" points="326.44,-186.08 316.07,-183.91 322.82,-192.07 326.44,-186.08"/>
</g>
<!-- autorepro_planner&#45;&gt;autorepro_report -->
<g id="edge13" class="edge">
<title>autorepro_planner&#45;&gt;autorepro_report</title><style>.edge>path:hover{stroke-width:8}</style>
<path fill="none" stroke="black" d="M183.97,-571.49C152.03,-542.58 190.28,-511.31 164.97,-476.44 145.8,-450.03 124.9,-462.64 100.97,-440.44 89.81,-430.09 86.07,-426.59 81.97,-411.92"/>
</g>
<!-- autorepro_planner&#45;&gt;autorepro_utils_plan_processing -->
<g id="edge14" class="edge">
<title>autorepro_planner&#45;&gt;autorepro_utils_plan_processing</title><style>.edge>path:hover{stroke-width:8}</style>
<path fill="none" stroke="black" d="M258.59,-616.78C235.75,-607.21 205.79,-592.23 183.97,-572.49"/>
<path fill="none" stroke="black" d="M183.97,-571.49C170.39,-559.2 154.48,-547.05 139.9,-536.67"/>
<polygon fill="#e90c0c" stroke="black" points="141.99,-533.86 131.79,-530.99 137.97,-539.6 141.99,-533.86"/>
</g>
<!-- autorepro_pr&#45;&gt;autorepro_cli -->
<g id="edge15" class="edge">
<title>autorepro_pr&#45;&gt;autorepro_cli</title><style>.edge>path:hover{stroke-width:8}</style>
<path fill="none" stroke="black" d="M302.19,-151.9C309.17,-143.33 317.88,-132.63 325.7,-123.03"/>
<polygon fill="#913030" stroke="black" points="328.27,-125.42 331.87,-115.45 322.84,-121 328.27,-125.42"/>
</g>
<!-- autorepro_report&#45;&gt;autorepro_cli -->
<g id="edge16" class="edge">
<title>autorepro_report&#45;&gt;autorepro_cli</title><style>.edge>path:hover{stroke-width:8}</style>
<path fill="none" stroke="black" d="M56.96,-306.37C39.13,-292.69 17.39,-271.36 11.97,-245.7"/>
</g>
<!-- autorepro_report&#45;&gt;autorepro_issue -->
<g id="edge17" class="edge">
<title>autorepro_report&#45;&gt;autorepro_issue</title><style>.edge>path:hover{stroke-width:8}</style>
<path fill="none" stroke="black" d="M91.96,-302.57C95.9,-294.57 100.51,-285.21 104.84,-276.41"/>
<polygon fill="#ac2b2b" stroke="black" points="107.98,-277.97 109.25,-267.46 101.7,-274.88 107.98,-277.97"/>
</g>
<!-- autorepro_rules -->
<g id="node9" class="node">
<title>autorepro_rules</title><style>.edge>path:hover{stroke-width:8}</style>
<ellipse fill="#c24747" stroke="black" cx="291.97" cy="-709.19" rx="42.07" ry="21.57"/>
<text xml:space="preserve" text-anchor="middle" x="291.97" y="-710.94" font-family="Helvetica,sans-Serif" font-size="10.00" fill="#ffffff">autorepro.</text>
<text xml:space="preserve" text-anchor="middle" x="291.97" y="-699.69" font-family="Helvetica,sans-Serif" font-size="10.00" fill="#ffffff">rules</text>
</g>
<!-- autorepro_rules&#45;&gt;autorepro_planner -->
<g id="edge18" class="edge">
<title>autorepro_rules&#45;&gt;autorepro_planner</title><style>.edge>path:hover{stroke-width:8}</style>
<path fill="none" stroke="black" d="M291.97,-687.52C291.97,-680.14 291.97,-671.64 291.97,-663.52"/>
<polygon fill="#c24747" stroke="black" points="295.47,-663.56 291.97,-653.56 288.47,-663.56 295.47,-663.56"/>
</g>
<!-- autorepro_sync -->
<g id="node10" class="node">
<title>autorepro_sync</title><style>.edge>path:hover{stroke-width:8}</style>
<ellipse fill="#db2f2f" stroke="black" cx="341.97" cy="-323.83" rx="47.63" ry="18"/>
<text xml:space="preserve" text-anchor="middle" x="341.97" y="-319.96" font-family="Helvetica,sans-Serif" font-size="10.00" fill="#ffffff">autorepro.sync</text>
</g>
<!-- autorepro_sync&#45;&gt;autorepro_cli -->
<g id="edge19" class="edge">
<title>autorepro_sync&#45;&gt;autorepro_cli</title><style>.edge>path:hover{stroke-width:8}</style>
<path fill="none" stroke="black" d="M379.97,-168.13C378.46,-152.69 371.47,-137.02 364.21,-124.43"/>
<polygon fill="#db2f2f" stroke="black" points="367.2,-122.6 358.96,-115.94 361.24,-126.28 367.2,-122.6"/>
<path fill="none" stroke="black" d="M341.97,-243.7C340.15,-206.94 383.55,-206.76 379.97,-170.13"/>
</g>
<!-- autorepro_sync&#45;&gt;autorepro_issue -->
<g id="edge20" class="edge">
<title>autorepro_sync&#45;&gt;autorepro_issue</title><style>.edge>path:hover{stroke-width:8}</style>
<path fill="none" stroke="black" d="M307.77,-310.95C269.48,-297.64 207.26,-276.03 165.03,-261.35"/>
<polygon fill="#db2f2f" stroke="black" points="166.24,-258.07 155.64,-258.09 163.94,-264.68 166.24,-258.07"/>
</g>
<!-- autorepro_sync&#45;&gt;autorepro_pr -->
<g id="edge21" class="edge">
<title>autorepro_sync&#45;&gt;autorepro_pr</title><style>.edge>path:hover{stroke-width:8}</style>
<path fill="none" stroke="black" d="M341.97,-243.7C341.02,-224.35 328.73,-206.61 316.24,-193.4"/>
<polygon fill="#db2f2f" stroke="black" points="318.77,-190.98 309.19,-186.46 313.86,-195.97 318.77,-190.98"/>
<path fill="none" stroke="black" d="M342.46,-305.36C342.79,-289.72 342.99,-266.16 341.97,-245.7"/>
</g>
<!-- autorepro_utils -->
<g id="node11" class="node">
<title>autorepro_utils</title><style>.edge>path:hover{stroke-width:8}</style>
<ellipse fill="#db2f2f" stroke="black" cx="151.97" cy="-410.92" rx="42.07" ry="21.57"/>
<text xml:space="preserve" text-anchor="middle" x="151.97" y="-412.67" font-family="Helvetica,sans-Serif" font-size="10.00" fill="#ffffff">autorepro.</text>
<text xml:space="preserve" text-anchor="middle" x="151.97" y="-401.42" font-family="Helvetica,sans-Serif" font-size="10.00" fill="#ffffff">utils</text>
</g>
<!-- autorepro_utils&#45;&gt;autorepro_issue -->
<g id="edge22" class="edge">
<title>autorepro_utils&#45;&gt;autorepro_issue</title><style>.edge>path:hover{stroke-width:8}</style>
<path fill="none" stroke="black" d="M151.97,-322.83C146.34,-307.47 139.46,-290.67 133.52,-276.68"/>
<polygon fill="#db2f2f" stroke="black" points="136.76,-275.34 129.6,-267.53 130.32,-278.1 136.76,-275.34"/>
</g>
<!-- autorepro_utils&#45;&gt;autorepro_pr -->
<g id="edge23" class="edge">
<title>autorepro_utils&#45;&gt;autorepro_pr</title><style>.edge>path:hover{stroke-width:8}</style>
<path fill="none" stroke="black" d="M155.85,-389.29C158.27,-371.62 159.65,-345.78 151.97,-324.83"/>
<path fill="none" stroke="black" d="M151.97,-322.83C136.61,-280.92 91.51,-304.8 68.97,-266.27 59.29,-249.72 57.11,-238.19 68.97,-223.13 89.71,-196.8 180.54,-182.03 238.81,-175.1"/>
<polygon fill="#db2f2f" stroke="black" points="238.96,-178.61 248.49,-173.99 238.16,-171.65 238.96,-178.61"/>
</g>
<!-- autorepro_utils&#45;&gt;autorepro_report -->
<g id="edge24" class="edge">
<title>autorepro_utils&#45;&gt;autorepro_report</title><style>.edge>path:hover{stroke-width:8}</style>
<path fill="none" stroke="black" d="M136.09,-390.61C126.87,-379.41 115.1,-365.1 104.89,-352.69"/>
<polygon fill="#db2f2f" stroke="black" points="107.81,-350.73 98.76,-345.23 102.41,-355.18 107.81,-350.73"/>
</g>
<!-- autorepro_utils_github -->
<g id="node12" class="node">
<title>autorepro_utils_github</title><style>.edge>path:hover{stroke-width:8}</style>
<ellipse fill="#ce3b3b" stroke="black" cx="291.97" cy="-410.92" rx="42.07" ry="29.52"/>
<text xml:space="preserve" text-anchor="middle" x="291.97" y="-418.3" font-family="Helvetica,sans-Serif" font-size="10.00" fill="#ffffff">autorepro.</text>
<text xml:space="preserve" text-anchor="middle" x="291.97" y="-407.05" font-family="Helvetica,sans-Serif" font-size="10.00" fill="#ffffff">utils.</text>
<text xml:space="preserve" text-anchor="middle" x="291.97" y="-395.8" font-family="Helvetica,sans-Serif" font-size="10.00" fill="#ffffff">github</text>
</g>
<!-- autorepro_utils_github&#45;&gt;autorepro_issue -->
<g id="edge25" class="edge">
<title>autorepro_utils_github&#45;&gt;autorepro_issue</title><style>.edge>path:hover{stroke-width:8}</style>
<path fill="none" stroke="black" d="M227.97,-322.83C212.98,-296.96 185.43,-277.49 161.91,-264.59"/>
<polygon fill="#ce3b3b" stroke="black" points="163.61,-261.53 153.12,-259.99 160.36,-267.73 163.61,-261.53"/>
<path fill="none" stroke="black" d="M270.68,-384.97C257.34,-368.57 240.39,-346.27 227.97,-324.83"/>
</g>
<!-- autorepro_utils_github&#45;&gt;autorepro_pr -->
<g id="edge26" class="edge">
<title>autorepro_utils_github&#45;&gt;autorepro_pr</title><style>.edge>path:hover{stroke-width:8}</style>
<path fill="none" stroke="black" d="M265.97,-243.7C270.12,-228.47 275.32,-211.65 279.74,-197.95"/>
<polygon fill="#ce3b3b" stroke="black" points="282.98,-199.3 282.75,-188.71 276.32,-197.13 282.98,-199.3"/>
<path fill="none" stroke="black" d="M227.97,-322.83C208.82,-289.77 255.94,-282.58 265.97,-245.7"/>
</g>
<!-- autorepro_utils_plan_processing&#45;&gt;autorepro_issue -->
<g id="edge27" class="edge">
<title>autorepro_utils_plan_processing&#45;&gt;autorepro_issue</title><style>.edge>path:hover{stroke-width:8}</style>
<path fill="none" stroke="black" d="M145.37,-488.97C178.81,-474.87 217.39,-450.46 221.97,-411.92"/>
<path fill="none" stroke="black" d="M221.97,-409.92C228.62,-354.09 182.88,-301 150.48,-270.98"/>
<polygon fill="#d02424" stroke="black" points="153.06,-268.59 143.28,-264.51 148.38,-273.8 153.06,-268.59"/>
</g>
<!-- autorepro_utils_plan_processing&#45;&gt;autorepro_pr -->
<g id="edge28" class="edge">
<title>autorepro_utils_plan_processing&#45;&gt;autorepro_pr</title><style>.edge>path:hover{stroke-width:8}</style>
<path fill="none" stroke="black" d="M361.97,-409.92C364.61,-365.35 310.25,-382.2 284.97,-345.4 259.44,-308.22 254.13,-289.23 265.97,-245.7"/>
<path fill="none" stroke="black" d="M155.66,-501.27C209.26,-495.36 287.35,-480.06 342.97,-440.44 355.38,-431.61 360.75,-427.1 361.97,-411.92"/>
</g>
<!-- autorepro_utils_plan_processing&#45;&gt;autorepro_report -->
<g id="edge29" class="edge">
<title>autorepro_utils_plan_processing&#45;&gt;autorepro_report</title><style>.edge>path:hover{stroke-width:8}</style>
<path fill="none" stroke="black" d="M81.97,-409.92C77.18,-392.75 76.91,-372.85 77.96,-356.62"/>
<polygon fill="#d02424" stroke="black" points="81.41,-357.31 78.78,-347.05 74.44,-356.71 81.41,-357.31"/>
<path fill="none" stroke="black" d="M92.93,-476.06C91.13,-457.48 87.85,-432.97 81.97,-411.92"/>
</g>
</g>
</svg>
